<svg width="24" height="24" viewBox="0 0 24 24" fill="none" xmlns="http://www.w3.org/2000/svg">
<g id="Frame 1597886657">
<g id="Group 631750">
<path id="Vector" d="M8.05081 8.52525C10.4996 5.95857 13.174 4.17878 15.4587 3.33409C17.8527 2.44895 19.2967 2.74481 19.9386 3.3572C20.5804 3.96959 20.9439 5.39813 20.1721 7.83113C19.9896 8.40678 19.7507 9.00909 19.4573 9.62851C19.8735 10.2004 20.0914 10.5306 20.471 11.1251C22.4643 7.38679 22.8096 3.91405 21.0285 2.21482C18.3862 -0.306139 12.0645 2.03117 6.90844 7.43533C6.25327 8.12204 5.64845 8.82526 5.09717 9.53477L6.4315 10.3914C6.92457 9.76426 7.46489 9.1394 8.05081 8.52525Z" fill="url(#paint0_linear_227_6405)"/>
<path id="Vector_2" d="M15.3347 15.4747C12.8858 18.0413 10.2114 19.8212 7.92679 20.6659C5.53273 21.551 4.08872 21.2551 3.44685 20.6427C2.80498 20.0304 2.44161 18.6018 3.21332 16.1688C3.39591 15.5931 3.6348 14.9909 3.92815 14.3714C3.50424 13.7887 3.2862 13.4599 2.9146 12.8745C0.921204 16.613 0.575878 20.0859 2.35693 21.7852C4.99923 24.3061 11.3211 21.9688 16.477 16.5646C17.1044 15.9069 17.6857 15.2342 18.218 14.5553L16.8783 13.7043C16.4058 14.2993 15.8907 14.8918 15.3347 15.4747Z" fill="url(#paint1_linear_227_6405)"/>
<path id="Vector_3" d="M15.3346 8.52525C12.8858 5.95857 10.2115 4.17878 7.92679 3.33409C5.53274 2.44895 4.08872 2.74481 3.44685 3.3572C2.80499 3.96959 2.44162 5.39813 3.21332 7.83113C3.39672 8.40933 3.63691 9.01441 3.93205 9.63671L2.32771 9.92692C0.87145 6.65844 0.767976 3.73082 2.35693 2.21482C4.99923 -0.306139 11.321 2.03117 16.4771 7.43533C17.8461 8.87036 18.9954 10.3774 19.8955 11.864L19.8947 11.8637C19.7118 11.7817 18.947 11.4386 17.9814 11.8005C17.2444 10.7061 16.3593 9.59915 15.3346 8.52525Z" fill="url(#paint2_linear_227_6405)"/>
<path id="Vector_4" d="M8.05072 15.4747C10.4996 18.0414 13.1739 19.8212 15.4585 20.6659C17.8526 21.5511 19.2967 21.2552 19.9385 20.6428C20.5804 20.0304 20.9437 18.6019 20.172 16.1688C20.0131 15.6679 19.8116 15.1467 19.5686 14.6117L21.0725 14.1064C22.5146 17.3615 22.612 20.2743 21.0284 21.7852C18.3861 24.3061 12.0643 21.9688 6.90834 16.5646C5.54635 15.1371 4.40194 13.6384 3.50391 12.1592C4.03915 12.4251 4.84267 12.444 5.41376 12.214C6.14878 13.3037 7.03063 14.4055 8.05072 15.4747Z" fill="url(#paint3_linear_227_6405)"/>
<path id="Vector_5" d="M15.4587 20.6657C17.8527 21.5508 19.2968 21.255 19.9386 20.6426C20.5805 20.0302 20.9439 18.6016 20.1721 16.1687C19.9321 15.412 19.5948 14.6092 19.1644 13.782L21.0111 13.9691C22.5202 17.2873 22.6375 20.2499 21.0285 21.785C19.0449 23.6775 14.9877 22.832 10.9067 20.0066L12.1692 18.9547C13.3075 19.7079 14.4232 20.2828 15.4587 20.6657Z" fill="url(#paint4_linear_227_6405)"/>
<path id="Vector_6" d="M15.3346 15.4746C12.8858 18.0413 10.2114 19.821 7.92676 20.6657L8.77261 22.0324C11.2514 21.0509 13.9988 19.1619 16.477 16.5645L15.3346 15.4746Z" fill="url(#paint5_linear_227_6405)"/>
<path id="Vector_7" fill-rule="evenodd" clip-rule="evenodd" d="M18.9431 14.0903C19.0461 14.0979 19.3488 14.199 19.7005 14.9024L21.112 14.1965C20.7123 13.2081 19.9907 12.5837 19.0579 12.5156C18.1352 12.4484 17.3609 13.0506 16.7881 13.8248L18.0574 14.764C18.5114 14.1502 18.8301 14.0821 18.9431 14.0903Z" fill="url(#paint6_linear_227_6405)"/>
<path id="Vector_8" fill-rule="evenodd" clip-rule="evenodd" d="M15.4585 3.33409C13.1738 4.17878 10.4994 5.95857 8.05063 8.52525L8.05046 8.52509C7.36299 9.26015 7.01835 9.65519 6.47185 10.3276C5.89908 11.1018 5.24462 11.5644 4.32193 11.4972C3.38913 11.4291 2.66645 10.715 2.27734 9.81265L3.67942 9.11034C4.03105 9.81365 4.24489 9.92246 4.43676 9.92246C4.71238 9.92246 5.04808 9.61463 5.32248 9.24885C5.86555 8.52494 6.90839 7.43506 6.90839 7.43506C9.41755 4.8052 12.2028 2.9017 14.7057 1.93091L15.4585 3.33409Z" fill="url(#paint7_linear_227_6405)"/>
</g>
</g>
<defs>
<linearGradient id="paint0_linear_227_6405" x1="21.0285" y1="2.21482" x2="2.35695" y2="21.7851" gradientUnits="userSpaceOnUse">
<stop offset="0.13344" stop-color="#463573"/>
<stop offset="0.828547" stop-color="#9B2BF4"/>
</linearGradient>
<linearGradient id="paint1_linear_227_6405" x1="21.0285" y1="2.21488" x2="2.35693" y2="21.7852" gradientUnits="userSpaceOnUse">
<stop offset="0.13344" stop-color="#463573"/>
<stop offset="0.828547" stop-color="#9B2BF4"/>
</linearGradient>
<linearGradient id="paint2_linear_227_6405" x1="2.35693" y1="2.21482" x2="21.0285" y2="21.7851" gradientUnits="userSpaceOnUse">
<stop offset="0.235571" stop-color="#A22AFF"/>
<stop offset="0.730517" stop-color="#7033B2"/>
</linearGradient>
<linearGradient id="paint3_linear_227_6405" x1="2.35685" y1="2.21493" x2="21.0284" y2="21.7852" gradientUnits="userSpaceOnUse">
<stop offset="0.235571" stop-color="#A22AFF"/>
<stop offset="0.730517" stop-color="#7033B2"/>
</linearGradient>
<linearGradient id="paint4_linear_227_6405" x1="15.1612" y1="15.9474" x2="20.8726" y2="21.9337" gradientUnits="userSpaceOnUse">
<stop offset="0.321054" stop-color="#6A32AA"/>
<stop offset="1" stop-color="#D59EFF"/>
</linearGradient>
<linearGradient id="paint5_linear_227_6405" x1="15.8558" y1="16.1441" x2="6.3261" y2="21.1719" gradientUnits="userSpaceOnUse">
<stop stop-color="#7130B3"/>
<stop offset="0.839889" stop-color="#9B2BF4"/>
</linearGradient>
<linearGradient id="paint6_linear_227_6405" x1="18.3456" y1="14.9564" x2="19.9888" y2="22.331" gradientUnits="userSpaceOnUse">
<stop stop-color="#6931A9"/>
<stop offset="1" stop-color="#D59EFF"/>
</linearGradient>
<linearGradient id="paint7_linear_227_6405" x1="4.942" y1="10.7872" x2="17.923" y2="1.41643" gradientUnits="userSpaceOnUse">
<stop stop-color="#A22AFF"/>
<stop offset="0.0001" stop-color="#A22AFF"/>
<stop offset="0.817824" stop-color="#493577"/>
</linearGradient>
</defs>
</svg>
