<svg width="90" height="17" viewBox="0 0 90 17" fill="none" xmlns="http://www.w3.org/2000/svg">
<path d="M0.7 9C0.7 7.62667 1.00667 6.4 1.62 5.32C2.24667 4.22667 3.09333 3.38 4.16 2.78C5.24 2.16667 6.44667 1.86 7.78 1.86C9.34 1.86 10.7067 2.26 11.88 3.06C13.0533 3.86 13.8733 4.96667 14.34 6.38H11.12C10.8 5.71333 10.3467 5.21333 9.76 4.88C9.18667 4.54667 8.52 4.38 7.76 4.38C6.94667 4.38 6.22 4.57333 5.58 4.96C4.95333 5.33333 4.46 5.86667 4.1 6.56C3.75333 7.25333 3.58 8.06667 3.58 9C3.58 9.92 3.75333 10.7333 4.1 11.44C4.46 12.1333 4.95333 12.6733 5.58 13.06C6.22 13.4333 6.94667 13.62 7.76 13.62C8.52 13.62 9.18667 13.4533 9.76 13.12C10.3467 12.7733 10.8 12.2667 11.12 11.6H14.34C13.8733 13.0267 13.0533 14.14 11.88 14.94C10.72 15.7267 9.35333 16.12 7.78 16.12C6.44667 16.12 5.24 15.82 4.16 15.22C3.09333 14.6067 2.24667 13.76 1.62 12.68C1.00667 11.6 0.7 10.3733 0.7 9ZM18.5316 6.64C18.8916 6.05333 19.3582 5.59333 19.9316 5.26C20.5182 4.92667 21.1849 4.76 21.9316 4.76V7.7H21.1916C20.3116 7.7 19.6449 7.90667 19.1916 8.32C18.7516 8.73333 18.5316 9.45333 18.5316 10.48V16H15.7316V4.92H18.5316V6.64ZM33.1175 10.22C33.1175 10.62 33.0908 10.98 33.0375 11.3H24.9375C25.0042 12.1 25.2842 12.7267 25.7775 13.18C26.2708 13.6333 26.8775 13.86 27.5975 13.86C28.6375 13.86 29.3775 13.4133 29.8175 12.52H32.8375C32.5175 13.5867 31.9042 14.4667 30.9975 15.16C30.0908 15.84 28.9775 16.18 27.6575 16.18C26.5908 16.18 25.6308 15.9467 24.7775 15.48C23.9375 15 23.2775 14.3267 22.7975 13.46C22.3308 12.5933 22.0975 11.5933 22.0975 10.46C22.0975 9.31333 22.3308 8.30667 22.7975 7.44C23.2642 6.57333 23.9175 5.90667 24.7575 5.44C25.5975 4.97333 26.5642 4.74 27.6575 4.74C28.7108 4.74 29.6508 4.96667 30.4775 5.42C31.3175 5.87333 31.9642 6.52 32.4175 7.36C32.8842 8.18667 33.1175 9.14 33.1175 10.22ZM30.2175 9.42C30.2042 8.7 29.9442 8.12667 29.4375 7.7C28.9308 7.26 28.3108 7.04 27.5775 7.04C26.8842 7.04 26.2975 7.25333 25.8175 7.68C25.3508 8.09333 25.0642 8.67333 24.9575 9.42H30.2175ZM33.4412 10.42C33.4412 9.3 33.6612 8.30667 34.1012 7.44C34.5546 6.57333 35.1679 5.90667 35.9413 5.44C36.7146 4.97333 37.5746 4.74 38.5213 4.74C39.2413 4.74 39.9279 4.9 40.5813 5.22C41.2346 5.52667 41.7546 5.94 42.1413 6.46V1.2H44.9813V16H42.1413V14.36C41.7946 14.9067 41.3079 15.3467 40.6813 15.68C40.0546 16.0133 39.3279 16.18 38.5013 16.18C37.5679 16.18 36.7146 15.94 35.9413 15.46C35.1679 14.98 34.5546 14.3067 34.1012 13.44C33.6612 12.56 33.4412 11.5533 33.4412 10.42ZM42.1613 10.46C42.1613 9.78 42.0279 9.2 41.7613 8.72C41.4946 8.22667 41.1346 7.85333 40.6813 7.6C40.2279 7.33333 39.7413 7.2 39.2213 7.2C38.7013 7.2 38.2213 7.32667 37.7812 7.58C37.3413 7.83333 36.9813 8.20667 36.7013 8.7C36.4346 9.18 36.3013 9.75333 36.3013 10.42C36.3013 11.0867 36.4346 11.6733 36.7013 12.18C36.9813 12.6733 37.3413 13.0533 37.7812 13.32C38.2346 13.5867 38.7146 13.72 39.2213 13.72C39.7413 13.72 40.2279 13.5933 40.6813 13.34C41.1346 13.0733 41.4946 12.7 41.7613 12.22C42.0279 11.7267 42.1613 11.14 42.1613 10.46ZM57.0159 10.22C57.0159 10.62 56.9893 10.98 56.9359 11.3H48.8359C48.9026 12.1 49.1826 12.7267 49.6759 13.18C50.1693 13.6333 50.7759 13.86 51.4959 13.86C52.5359 13.86 53.2759 13.4133 53.7159 12.52H56.7359C56.4159 13.5867 55.8026 14.4667 54.8959 15.16C53.9893 15.84 52.8759 16.18 51.5559 16.18C50.4893 16.18 49.5293 15.9467 48.6759 15.48C47.8359 15 47.1759 14.3267 46.6959 13.46C46.2293 12.5933 45.9959 11.5933 45.9959 10.46C45.9959 9.31333 46.2293 8.30667 46.6959 7.44C47.1626 6.57333 47.8159 5.90667 48.6559 5.44C49.4959 4.97333 50.4626 4.74 51.5559 4.74C52.6093 4.74 53.5493 4.96667 54.3759 5.42C55.2159 5.87333 55.8626 6.52 56.3159 7.36C56.7826 8.18667 57.0159 9.14 57.0159 10.22ZM54.1159 9.42C54.1026 8.7 53.8426 8.12667 53.3359 7.7C52.8293 7.26 52.2093 7.04 51.4759 7.04C50.7826 7.04 50.1959 7.25333 49.7159 7.68C49.2493 8.09333 48.9626 8.67333 48.8559 9.42H54.1159ZM68.3597 10.22C68.3597 10.62 68.333 10.98 68.2797 11.3H60.1797C60.2464 12.1 60.5264 12.7267 61.0197 13.18C61.513 13.6333 62.1197 13.86 62.8397 13.86C63.8797 13.86 64.6197 13.4133 65.0597 12.52H68.0797C67.7597 13.5867 67.1464 14.4667 66.2397 15.16C65.333 15.84 64.2197 16.18 62.8997 16.18C61.833 16.18 60.873 15.9467 60.0197 15.48C59.1797 15 58.5197 14.3267 58.0397 13.46C57.573 12.5933 57.3397 11.5933 57.3397 10.46C57.3397 9.31333 57.573 8.30667 58.0397 7.44C58.5064 6.57333 59.1597 5.90667 59.9997 5.44C60.8397 4.97333 61.8064 4.74 62.8997 4.74C63.953 4.74 64.893 4.96667 65.7197 5.42C66.5597 5.87333 67.2064 6.52 67.6597 7.36C68.1264 8.18667 68.3597 9.14 68.3597 10.22ZM65.4597 9.42C65.4464 8.7 65.1864 8.12667 64.6797 7.7C64.173 7.26 63.553 7.04 62.8197 7.04C62.1264 7.04 61.5397 7.25333 61.0597 7.68C60.593 8.09333 60.3064 8.67333 60.1997 9.42H65.4597Z" fill="#101112"/>
<path d="M70.6434 16.14C70.1368 16.14 69.7168 15.9867 69.3834 15.68C69.0634 15.36 68.9034 14.9667 68.9034 14.5C68.9034 14.0333 69.0634 13.6467 69.3834 13.34C69.7168 13.02 70.1368 12.86 70.6434 12.86C71.1368 12.86 71.5434 13.02 71.8634 13.34C72.1834 13.6467 72.3434 14.0333 72.3434 14.5C72.3434 14.9667 72.1834 15.36 71.8634 15.68C71.5434 15.9867 71.1368 16.14 70.6434 16.14ZM72.8787 10.42C72.8787 9.3 73.0987 8.30667 73.5387 7.44C73.9921 6.57333 74.5988 5.90667 75.3588 5.44C76.1321 4.97333 76.9921 4.74 77.9388 4.74C78.7654 4.74 79.4854 4.90667 80.0988 5.24C80.7254 5.57333 81.2254 5.99333 81.5988 6.5V4.92H84.4188V16H81.5988V14.38C81.2388 14.9 80.7388 15.3333 80.0988 15.68C79.4721 16.0133 78.7454 16.18 77.9188 16.18C76.9854 16.18 76.1321 15.94 75.3588 15.46C74.5988 14.98 73.9921 14.3067 73.5387 13.44C73.0987 12.56 72.8787 11.5533 72.8787 10.42ZM81.5988 10.46C81.5988 9.78 81.4654 9.2 81.1988 8.72C80.9321 8.22667 80.5721 7.85333 80.1188 7.6C79.6654 7.33333 79.1788 7.2 78.6588 7.2C78.1388 7.2 77.6588 7.32667 77.2188 7.58C76.7788 7.83333 76.4188 8.20667 76.1388 8.7C75.8721 9.18 75.7388 9.75333 75.7388 10.42C75.7388 11.0867 75.8721 11.6733 76.1388 12.18C76.4188 12.6733 76.7788 13.0533 77.2188 13.32C77.6721 13.5867 78.1521 13.72 78.6588 13.72C79.1788 13.72 79.6654 13.5933 80.1188 13.34C80.5721 13.0733 80.9321 12.7 81.1988 12.22C81.4654 11.7267 81.5988 11.14 81.5988 10.46ZM87.5734 3.6C87.0801 3.6 86.6668 3.44667 86.3334 3.14C86.0134 2.82 85.8534 2.42667 85.8534 1.96C85.8534 1.49333 86.0134 1.10667 86.3334 0.799999C86.6668 0.479999 87.0801 0.319999 87.5734 0.319999C88.0668 0.319999 88.4734 0.479999 88.7934 0.799999C89.1268 1.10667 89.2934 1.49333 89.2934 1.96C89.2934 2.42667 89.1268 2.82 88.7934 3.14C88.4734 3.44667 88.0668 3.6 87.5734 3.6ZM88.9534 4.92V16H86.1534V4.92H88.9534Z" fill="#936CFF"/>
</svg>
