<svg width="42" height="40" viewBox="0 0 42 40" fill="none" xmlns="http://www.w3.org/2000/svg">
<g id="Login">
<path id="Vector" fill-rule="evenodd" clip-rule="evenodd" d="M25.1763 10.06C24.473 9.50243 23.4509 9.6205 22.8934 10.3237C22.3358 11.027 22.4538 12.0491 23.1571 12.6066L26.9768 15.6353C28.5022 16.8448 29.5466 17.6759 30.256 18.375H15.5V13.5C15.5 11.4872 15.5 10.4807 15.6334 9.63863C16.3676 5.00313 20.0031 1.36757 24.6386 0.633375C25.4807 0.5 26.4872 0.5 28.5 0.5C30.5128 0.5 31.5193 0.5 32.3614 0.633375C36.9969 1.36757 40.6324 5.00312 41.3666 9.63863C41.5 10.4807 41.5 11.4872 41.5 13.5V26.5C41.5 28.5128 41.5 29.5193 41.3666 30.3614C40.6324 34.9969 36.9969 38.6324 32.3614 39.3666C31.5193 39.5 30.5128 39.5 28.5 39.5C26.4872 39.5 25.4807 39.5 24.6386 39.3666C20.0031 38.6324 16.3676 34.9969 15.6334 30.3614C15.5 29.5193 15.5 28.5128 15.5 26.5V21.625H30.256C29.5466 22.3241 28.5022 23.1552 26.9768 24.3647L23.1571 27.3934C22.4538 27.9509 22.3358 28.973 22.8934 29.6763C23.4509 30.3795 24.473 30.4976 25.1763 29.94L29.0737 26.8498C30.5307 25.6945 31.733 24.7413 32.5895 23.8881C33.4685 23.0125 34.1971 22.0407 34.395 20.7988C34.4371 20.5342 34.4583 20.2673 34.4583 20C34.4583 19.7327 34.4372 19.4658 34.395 19.2012C34.1971 17.9593 33.4685 16.9875 32.5895 16.1119C31.733 15.2587 30.5307 14.3055 29.0737 13.1502L25.1763 10.06ZM15.5 21.625L2.5 21.625C1.60254 21.625 0.875 20.8975 0.875 20C0.875 19.1025 1.60254 18.375 2.5 18.375L15.5 18.375V21.625Z" fill="#936CFF"/>
</g>
</svg>
