<svg width="137" height="28" viewBox="0 0 137 28" fill="none" xmlns="http://www.w3.org/2000/svg">
<g id="symb+name h. black 1" clip-path="url(#clip0_227_6469)">
<g id="Clip path group">
<mask id="mask0_227_6469" style="mask-type:luminance" maskUnits="userSpaceOnUse" x="0" y="0" width="137" height="28">
<g id="clip0_14_97">
<path id="Vector" d="M136.973 0H0V28H136.973V0Z" fill="white"/>
</g>
</mask>
<g mask="url(#mask0_227_6469)">
<g id="Group">
<g id="Group 631750">
<path id="Vector_2" d="M10.2225 10.5915C12.6116 8.08743 15.2208 6.35103 17.4497 5.52693C19.7854 4.66338 21.1942 4.95202 21.8205 5.54948C22.4466 6.14694 22.8012 7.54065 22.0482 9.91434C21.8702 10.476 21.6371 11.0636 21.3508 11.6679C21.7569 12.2259 21.9695 12.548 22.3398 13.128C24.2846 9.48083 24.6214 6.09276 22.8838 4.43495C20.3059 1.97545 14.1383 4.25578 9.10793 9.52819C8.46873 10.1982 7.87866 10.8842 7.34082 11.5764L8.64263 12.4122C9.12367 11.8003 9.65082 11.1907 10.2225 10.5915Z" fill="url(#paint0_linear_227_6469)"/>
<path id="Vector_3" d="M17.329 17.3715C14.9398 19.8756 12.3306 21.612 10.1017 22.4361C7.76598 23.2997 6.35716 23.011 5.73095 22.4135C5.10472 21.8161 4.75021 20.4224 5.50311 18.0487C5.68125 17.487 5.91431 16.8995 6.20052 16.2951C5.78694 15.7266 5.57421 15.4059 5.21167 14.8347C3.26687 18.4821 2.92997 21.8703 4.6676 23.5281C7.24548 25.9876 13.4132 23.7073 18.4435 18.4348C19.0556 17.7932 19.6227 17.1369 20.1419 16.4745L18.8349 15.6442C18.3739 16.2248 17.8715 16.8028 17.329 17.3715Z" fill="url(#paint1_linear_227_6469)"/>
<path id="Vector_4" d="M17.3289 10.5915C14.9398 8.08743 12.3306 6.35103 10.1017 5.52693C7.76599 4.66338 6.35716 4.95202 5.73095 5.54948C5.10473 6.14694 4.75022 7.54065 5.50311 9.91434C5.68204 10.4784 5.91638 11.0688 6.20432 11.6759L4.63909 11.959C3.21833 8.77024 3.11738 5.91399 4.6676 4.43495C7.24548 1.97545 13.4131 4.25578 18.4435 9.52819C19.7792 10.9282 20.9005 12.3985 21.7786 13.8489L21.7778 13.8486C21.5994 13.7686 20.8532 13.4339 19.9112 13.7869C19.1921 12.7193 18.3286 11.6393 17.3289 10.5915Z" fill="url(#paint2_linear_227_6469)"/>
<path id="Vector_5" d="M10.2226 17.3714C12.6118 19.8755 15.2208 21.612 17.4498 22.4361C19.7855 23.2996 21.1944 23.011 21.8205 22.4135C22.4468 21.8161 22.8013 20.4223 22.0484 18.0486C21.8934 17.5599 21.6967 17.0514 21.4597 16.5295L22.9269 16.0365C24.3338 19.2122 24.4288 22.054 22.8839 23.5281C20.306 25.9875 14.1384 23.7072 9.10806 18.4348C7.77927 17.042 6.66276 15.5799 5.78662 14.1367C6.30882 14.3962 7.09275 14.4146 7.64992 14.1902C8.36701 15.2534 9.22737 16.3283 10.2226 17.3714Z" fill="url(#paint3_linear_227_6469)"/>
<path id="Vector_6" d="M17.4498 22.4361C19.7854 23.2997 21.1943 23.011 21.8205 22.4136C22.4467 21.8161 22.8012 20.4224 22.0482 18.0488C21.8141 17.3105 21.485 16.5272 21.0651 15.7202L22.8668 15.9028C24.3392 19.1401 24.4535 22.0305 22.8838 23.5281C20.9486 25.3745 16.9903 24.5496 13.0088 21.7931L14.2405 20.7668C15.3511 21.5016 16.4395 22.0626 17.4498 22.4361Z" fill="url(#paint4_linear_227_6469)"/>
<path id="Vector_7" d="M17.3289 17.3716C14.9397 19.8757 12.3305 21.612 10.1016 22.4361L10.9268 23.7695C13.3452 22.8119 16.0256 20.969 18.4433 18.4349L17.3289 17.3716Z" fill="url(#paint5_linear_227_6469)"/>
<path id="Vector_8" fill-rule="evenodd" clip-rule="evenodd" d="M20.8496 16.0208C20.95 16.0282 21.2453 16.1269 21.5885 16.813L22.9656 16.1244C22.5756 15.1601 21.8716 14.5509 20.9616 14.4845C20.0613 14.4189 19.3059 15.0064 18.7471 15.7618L19.9854 16.678C20.4284 16.0792 20.7393 16.0128 20.8496 16.0208Z" fill="url(#paint6_linear_227_6469)"/>
<path id="Vector_9" fill-rule="evenodd" clip-rule="evenodd" d="M17.4501 5.52693C15.2212 6.35103 12.612 8.08743 10.2229 10.5915L10.2227 10.5914C9.552 11.3085 9.21576 11.6939 8.68258 12.3499C8.12377 13.1053 7.48527 13.5566 6.58508 13.491C5.67501 13.4246 4.96995 12.7279 4.59033 11.8475L5.95822 11.1624C6.30128 11.8485 6.50991 11.9547 6.6971 11.9547C6.96601 11.9547 7.29352 11.6544 7.56123 11.2975C8.09106 10.5912 9.10847 9.52793 9.10847 9.52793C11.5565 6.96218 14.2738 5.10508 16.7157 4.15796L17.4501 5.52693Z" fill="url(#paint7_linear_227_6469)"/>
</g>
<path id="Vector_10" d="M131.817 7.54128V5.39062H133.897V7.54128H131.817ZM131.817 22.3973V9.77376H133.897V22.3973H131.817Z" fill="#B759FF"/>
<path id="Vector_11" d="M122.023 22.7478C121.079 22.7478 120.289 22.5764 119.65 22.2336C119.018 21.8829 118.539 21.4232 118.212 20.8543C117.892 20.2855 117.733 19.6621 117.733 18.9842C117.733 18.3219 117.857 17.7491 118.107 17.266C118.364 16.7751 118.722 16.3699 119.182 16.0504C119.642 15.7231 120.191 15.466 120.83 15.279C121.43 15.1153 122.1 14.9751 122.84 14.8582C123.588 14.7335 124.345 14.6205 125.108 14.5192C125.871 14.4179 126.585 14.3205 127.246 14.227L126.498 14.6595C126.522 13.5374 126.296 12.7075 125.82 12.1699C125.353 11.6322 124.543 11.3634 123.39 11.3634C122.626 11.3634 121.956 11.5387 121.379 11.8894C120.811 12.2322 120.41 12.7932 120.175 13.5725L118.2 12.9764C118.504 11.8699 119.092 11.001 119.965 10.3699C120.838 9.73868 121.987 9.4231 123.413 9.4231C124.559 9.4231 125.54 9.62959 126.359 10.0426C127.185 10.4478 127.777 11.0634 128.135 11.8894C128.315 12.279 128.427 12.7036 128.475 13.1634C128.521 13.6153 128.545 14.0907 128.545 14.5894V22.3972H126.697V19.3699L127.13 19.6504C126.655 20.6712 125.988 21.4427 125.132 21.9647C124.282 22.4868 123.245 22.7478 122.023 22.7478ZM122.338 21.0063C123.085 21.0063 123.733 20.8738 124.278 20.6089C124.831 20.3362 125.276 19.9816 125.611 19.5452C125.946 19.101 126.164 18.618 126.265 18.0958C126.382 17.7062 126.444 17.2738 126.452 16.7984C126.468 16.3153 126.476 15.9452 126.476 15.6881L127.2 16.0036C126.522 16.0971 125.856 16.1868 125.201 16.2725C124.547 16.3582 123.928 16.4517 123.343 16.553C122.759 16.6465 122.232 16.7595 121.765 16.8919C121.423 17.001 121.098 17.1414 120.795 17.3127C120.498 17.4842 120.257 17.7062 120.07 17.979C119.891 18.2439 119.801 18.5751 119.801 18.9725C119.801 19.3154 119.888 19.6427 120.058 19.9543C120.238 20.266 120.51 20.5193 120.877 20.7141C121.251 20.9089 121.738 21.0063 122.338 21.0063Z" fill="#B759FF"/>
<path id="Vector_12" d="M112.507 22.3971V20.1062H114.798V22.3971H112.507Z" fill="#B759FF"/>
<path id="Vector_13" d="M104.249 22.7478C103.01 22.7478 101.927 22.4751 100.999 21.9297C100.08 21.3764 99.3629 20.6089 98.8486 19.6271C98.3342 18.6375 98.0771 17.4842 98.0771 16.1673C98.0771 14.7881 98.3303 13.5958 98.8369 12.5907C99.3434 11.5777 100.049 10.7984 100.953 10.253C101.864 9.69972 102.932 9.4231 104.155 9.4231C105.425 9.4231 106.505 9.7153 107.393 10.2997C108.289 10.8842 108.959 11.7179 109.403 12.801C109.855 13.8842 110.05 15.1738 109.987 16.6699H107.884V15.9218C107.86 14.3712 107.545 13.214 106.937 12.4504C106.329 11.679 105.425 11.2932 104.225 11.2932C102.94 11.2932 101.962 11.7062 101.291 12.5322C100.621 13.3582 100.286 14.5427 100.286 16.0855C100.286 17.5738 100.621 18.7271 101.291 19.5452C101.962 20.3634 102.916 20.7725 104.155 20.7725C104.989 20.7725 105.714 20.5816 106.329 20.1997C106.945 19.818 107.428 19.2686 107.778 18.5517L109.777 19.2414C109.287 20.3556 108.546 21.2206 107.556 21.8362C106.575 22.4439 105.472 22.7478 104.249 22.7478ZM99.5849 16.6699V14.9984H108.913V16.6699H99.5849Z" fill="#2C2C2C"/>
<path id="Vector_14" d="M90.4371 22.7478C89.1982 22.7478 88.115 22.4751 87.1877 21.9297C86.2682 21.3764 85.5514 20.6089 85.0371 19.6271C84.5228 18.6375 84.2656 17.4842 84.2656 16.1673C84.2656 14.7881 84.5189 13.5958 85.0254 12.5907C85.5319 11.5777 86.2371 10.7984 87.141 10.253C88.0527 9.69972 89.1202 9.4231 90.3436 9.4231C91.6137 9.4231 92.693 9.7153 93.5813 10.2997C94.4774 10.8842 95.1475 11.7179 95.5917 12.801C96.0436 13.8842 96.2384 15.1738 96.1761 16.6699H94.0722V15.9218C94.0488 14.3712 93.7332 13.214 93.1254 12.4504C92.5176 11.679 91.6137 11.2932 90.4137 11.2932C89.128 11.2932 88.1501 11.7062 87.4799 12.5322C86.8098 13.3582 86.4747 14.5427 86.4747 16.0855C86.4747 17.5738 86.8098 18.7271 87.4799 19.5452C88.1501 20.3634 89.1047 20.7725 90.3436 20.7725C91.1774 20.7725 91.9021 20.5816 92.5176 20.1997C93.1332 19.818 93.6163 19.2686 93.967 18.5517L95.9657 19.2414C95.4748 20.3556 94.7345 21.2206 93.7449 21.8362C92.763 22.4439 91.6604 22.7478 90.4371 22.7478ZM85.7734 16.6699V14.9984H95.1008V16.6699H85.7734Z" fill="#2C2C2C"/>
<path id="Vector_15" d="M75.8828 22.7478C74.7061 22.7478 73.697 22.4556 72.8555 21.8712C72.0139 21.279 71.3633 20.4803 70.9035 19.4751C70.4515 18.4699 70.2256 17.3362 70.2256 16.0738C70.2256 14.8114 70.4515 13.6777 70.9035 12.6725C71.3633 11.6673 72.0139 10.8764 72.8555 10.2997C73.697 9.71529 74.7022 9.42308 75.8711 9.42308C77.0633 9.42308 78.0646 9.71139 78.875 10.288C79.6854 10.8647 80.297 11.6555 80.7101 12.6608C81.1309 13.666 81.3413 14.8036 81.3413 16.0738C81.3413 17.3284 81.1309 18.4621 80.7101 19.4751C80.297 20.4803 79.6854 21.279 78.875 21.8712C78.0646 22.4556 77.0672 22.7478 75.8828 22.7478ZM76.14 20.8426C76.9893 20.8426 77.6867 20.64 78.2322 20.2349C78.7776 19.8219 79.1789 19.2569 79.4361 18.54C79.7009 17.8153 79.8335 16.9932 79.8335 16.0738C79.8335 15.1386 79.7009 14.3166 79.4361 13.6075C79.1789 12.8906 78.7815 12.3335 78.2439 11.936C77.7061 11.5309 77.0243 11.3283 76.1983 11.3283C75.3413 11.3283 74.6321 11.5386 74.0711 11.9595C73.5178 12.3803 73.1048 12.949 72.8321 13.666C72.5672 14.3829 72.4347 15.1855 72.4347 16.0738C72.4347 16.9699 72.5711 17.7803 72.8438 18.5049C73.1165 19.2219 73.5256 19.7906 74.0711 20.2114C74.6243 20.6323 75.3139 20.8426 76.14 20.8426ZM79.8335 22.3971V13.1049H79.5996V5.56592H81.6919V22.3971H79.8335Z" fill="#2C2C2C"/>
<path id="Vector_16" d="M62.586 22.7478C61.3471 22.7478 60.264 22.4751 59.3367 21.9297C58.4171 21.3764 57.7003 20.6089 57.186 19.6271C56.6717 18.6375 56.4146 17.4842 56.4146 16.1673C56.4146 14.7881 56.6678 13.5958 57.1743 12.5907C57.6808 11.5777 58.386 10.7984 59.2899 10.253C60.2016 9.69972 61.2691 9.4231 62.4925 9.4231C63.7627 9.4231 64.8419 9.7153 65.7302 10.2997C66.6263 10.8842 67.2965 11.7179 67.7406 12.801C68.1926 13.8842 68.3874 15.1738 68.325 16.6699H66.2211V15.9218C66.1978 14.3712 65.8821 13.214 65.2743 12.4504C64.6666 11.679 63.7627 11.2932 62.5627 11.2932C61.2769 11.2932 60.299 11.7062 59.6289 12.5322C58.9588 13.3582 58.6236 14.5427 58.6236 16.0855C58.6236 17.5738 58.9588 18.7271 59.6289 19.5452C60.299 20.3634 61.2536 20.7725 62.4925 20.7725C63.3263 20.7725 64.051 20.5816 64.6666 20.1997C65.2821 19.818 65.7653 19.2686 66.116 18.5517L68.1147 19.2414C67.6237 20.3556 66.8834 21.2206 65.8939 21.8362C64.9121 22.4439 63.8095 22.7478 62.586 22.7478ZM57.9223 16.6699V14.9984H67.2497V16.6699H57.9223Z" fill="#2C2C2C"/>
<path id="Vector_17" d="M48.623 22.3972V9.77373H50.4815V12.8244L50.1776 12.4269C50.3256 12.0373 50.5166 11.6789 50.7504 11.3517C50.9919 11.0244 51.2608 10.7556 51.5569 10.5452C51.8841 10.2802 52.2543 10.0776 52.6673 9.93736C53.0802 9.7971 53.501 9.71528 53.9296 9.69191C54.3582 9.66074 54.7595 9.68801 55.1335 9.77373V11.7257C54.6971 11.6088 54.218 11.5777 53.6958 11.6321C53.1737 11.6867 52.6906 11.8777 52.2465 12.2049C51.8413 12.4932 51.5257 12.8439 51.2997 13.2569C51.0815 13.6699 50.9296 14.1179 50.8439 14.601C50.7582 15.0764 50.7153 15.5634 50.7153 16.0621V22.3972H48.623Z" fill="#2C2C2C"/>
<path id="Vector_18" d="M38.6495 22.7479C36.9742 22.7479 35.5521 22.3777 34.3832 21.6375C33.2144 20.8973 32.3222 19.8687 31.7066 18.5518C31.0988 17.2349 30.7949 15.7115 30.7949 13.9816C30.7949 12.2518 31.0988 10.7284 31.7066 9.41146C32.3222 8.09458 33.2144 7.06599 34.3832 6.32573C35.5521 5.58547 36.9742 5.21533 38.6495 5.21533C40.5975 5.21533 42.1988 5.71014 43.4534 6.69976C44.7158 7.68938 45.5845 9.02185 46.0599 10.6972L43.9443 11.2583C43.6015 10.0037 42.9897 9.01406 42.1093 8.28939C41.2288 7.5647 40.0755 7.20236 38.6495 7.20236C37.3949 7.20236 36.3508 7.48678 35.517 8.05561C34.6832 8.62445 34.056 9.41926 33.6351 10.44C33.2144 11.4531 33.0001 12.6335 32.9923 13.9816C32.9845 15.3218 33.191 16.5024 33.6118 17.5232C34.0325 18.5362 34.6638 19.331 35.5053 19.9077C36.3469 20.4764 37.3949 20.7609 38.6495 20.7609C40.0755 20.7609 41.2288 20.3985 42.1093 19.6738C42.9897 18.9414 43.6015 17.9518 43.9443 16.705L46.0599 17.2661C45.5845 18.9336 44.7158 20.2661 43.4534 21.2635C42.1988 22.2531 40.5975 22.7479 38.6495 22.7479Z" fill="#2C2C2C"/>
</g>
</g>
</g>
</g>
<defs>
<linearGradient id="paint0_linear_227_6469" x1="22.8838" y1="4.43495" x2="4.6674" y2="23.5281" gradientUnits="userSpaceOnUse">
<stop offset="0.13344" stop-color="#463573"/>
<stop offset="0.828547" stop-color="#9B2BF4"/>
</linearGradient>
<linearGradient id="paint1_linear_227_6469" x1="22.884" y1="4.43495" x2="4.6676" y2="23.5281" gradientUnits="userSpaceOnUse">
<stop offset="0.13344" stop-color="#463573"/>
<stop offset="0.828547" stop-color="#9B2BF4"/>
</linearGradient>
<linearGradient id="paint2_linear_227_6469" x1="4.6676" y1="4.43495" x2="22.8839" y2="23.5281" gradientUnits="userSpaceOnUse">
<stop offset="0.235571" stop-color="#A22AFF"/>
<stop offset="0.730517" stop-color="#7033B2"/>
</linearGradient>
<linearGradient id="paint3_linear_227_6469" x1="4.66753" y1="4.4349" x2="22.8839" y2="23.5281" gradientUnits="userSpaceOnUse">
<stop offset="0.235571" stop-color="#A22AFF"/>
<stop offset="0.730517" stop-color="#7033B2"/>
</linearGradient>
<linearGradient id="paint4_linear_227_6469" x1="17.1595" y1="17.8329" x2="22.7317" y2="23.6732" gradientUnits="userSpaceOnUse">
<stop offset="0.321054" stop-color="#6A32AA"/>
<stop offset="1" stop-color="#D59EFF"/>
</linearGradient>
<linearGradient id="paint5_linear_227_6469" x1="17.8373" y1="18.0248" x2="8.53993" y2="22.93" gradientUnits="userSpaceOnUse">
<stop stop-color="#7130B3"/>
<stop offset="0.839889" stop-color="#9B2BF4"/>
</linearGradient>
<linearGradient id="paint6_linear_227_6469" x1="20.2666" y1="16.8658" x2="21.8698" y2="24.0606" gradientUnits="userSpaceOnUse">
<stop stop-color="#6931A9"/>
<stop offset="1" stop-color="#D59EFF"/>
</linearGradient>
<linearGradient id="paint7_linear_227_6469" x1="7.19003" y1="12.7984" x2="19.8546" y2="3.65602" gradientUnits="userSpaceOnUse">
<stop stop-color="#A22AFF"/>
<stop offset="0.0001" stop-color="#A22AFF"/>
<stop offset="0.817824" stop-color="#493577"/>
</linearGradient>
<clipPath id="clip0_227_6469">
<rect width="136.973" height="28" fill="white"/>
</clipPath>
</defs>
</svg>
